<svg id="SVGDoc" width="43" height="41" xmlns="http://www.w3.org/2000/svg" version="1.1" xmlns:xlink="http://www.w3.org/1999/xlink" xmlns:avocode="https://avocode.com/" viewBox="0 0 43 41"><defs><path d="M276.73806,764.01207l-4.61034,4.61312l-9.10575,-9.10595c-2.74913,2.21513 -6.24493,3.54105 -10.05073,3.54105c-8.85401,0 -16.02999,-7.17632 -16.02999,-16.03034c0,-8.85374 7.17598,-16.03025 16.02999,-16.03025c8.85084,0 16.02715,7.17651 16.03016,16.03025c0,2.67976 -0.65736,5.20584 -1.81964,7.42579zM252.97124,737.52021c-5.24678,0 -9.50973,4.26753 -9.50973,9.50974c0,5.24203 4.26612,9.50665 9.50973,9.50665c5.24036,0 9.5099,-4.26126 9.5099,-9.50665c0,-5.24531 -4.26954,-9.50974 -9.5099,-9.50974c0,0 5.24687,0 0,0z" id="Path-0"/></defs><desc>Generated with Avocode.</desc><g transform="matrix(1,0,0,1,-235,-729)"><g><title>magnify glass</title><use xlink:href="#Path-0" fill="#9a9a9a" fill-opacity="1"/></g></g></svg>