<svg id="SVGDoc" width="31" height="27" xmlns="http://www.w3.org/2000/svg" version="1.1" xmlns:xlink="http://www.w3.org/1999/xlink" xmlns:avocode="https://avocode.com/" viewBox="0 0 31 27"><defs><path d="M946.89301,175.05076c-0.68994,0.99854 -2.06232,1.24945 -3.06085,0.55699l-9.04224,-6.25734c-0.64014,-0.44162 -0.97144,-1.16174 -0.94672,-1.88544c-1.16479,1.24913 -2.69482,2.08819 -4.40863,2.39972c-2.10504,0.38394 -4.23102,-0.07518 -5.98566,-1.28956c-1.75562,-1.2143 -2.9339,-3.04076 -3.3175,-5.1445c-0.38385,-2.10512 0.07404,-4.23204 1.28961,-5.98861c2.5105,-3.62664 7.50421,-4.53584 11.13245,-2.0262c3.29303,2.28012 4.34546,6.60638 2.63373,10.09836c0.66882,-0.2811 1.46198,-0.22618 2.10541,0.21837l9.04474,6.25726c0.99854,0.69246 1.24817,2.0624 0.55566,3.06094zM933.48773,160.9969c-0.26685,-1.46709 -1.08789,-2.7407 -2.31195,-3.58718c-2.52869,-1.7512 -6.01202,-1.11805 -7.76428,1.41063c-1.74994,2.53185 -1.11609,6.01399 1.41321,7.76275c2.52899,1.7512 6.01172,1.1183 7.76355,-1.41136c0.84747,-1.22431 1.16699,-2.7071 0.89948,-4.17484z" id="Path-0"/></defs><desc>Generated with Avocode.</desc><g transform="matrix(1,0,0,1,-918,-151)"><g><title>Shape 2</title><use xlink:href="#Path-0" fill="#cdcdcd" fill-opacity="1"/><use xlink:href="#Path-0" fill="#a8a8a8" fill-opacity="1"/></g></g></svg>